<svg xmlns="http://www.w3.org/2000/svg" width="217" height="234">
  <path
    d="M17.872 14.75c-1.243 1.586-1.208 1.621.378.378C19.916 13.821 20.445 13 19.622 13c-.207 0-.995.787-1.75 1.75M199 15.378c0 .207.787.995 1.75 1.75 1.586 1.243 1.621 1.208.378-.378-1.307-1.666-2.128-2.195-2.128-1.372m7.079 13.205c.048 1.165.285 1.402.604.605.289-.722.253-1.585-.079-1.917-.332-.332-.568.258-.525 1.312M9.272 33c0 2.475.195 3.487.434 2.25.238-1.237.238-3.262 0-4.5-.239-1.238-.434-.225-.434 2.25m196.864 1.25c-.075 2.063-.514 3.75-.975 3.75-.757 0-2.434 2.904-3.176 5.5-.158.55-.782 1.45-1.387 2-.606.55-2.451 2.517-4.1 4.371l-2.998 3.371 3.27-1.657c6.196-3.14 11.14-12.431 9.953-18.704-.309-1.633-.493-1.203-.587 1.369M67.25 49.745c4.812.183 12.687.183 17.5 0 4.813-.184.875-.334-8.75-.334s-13.562.15-8.75.334m28.019-.052c.973.254 2.323.237 3-.037.677-.274-.119-.481-1.769-.461-1.65.02-2.204.244-1.231.498m34.481-.031c.688.278 1.813.278 2.5 0 .688-.277.125-.504-1.25-.504s-1.937.227-1.25.504m10.063.021c.721.289 1.584.253 1.916-.079.332-.332-.258-.568-1.312-.525-1.165.048-1.402.285-.604.604M53.158 57c0 1.375.227 1.938.504 1.25.278-.687.278-1.812 0-2.5-.277-.687-.504-.125-.504 1.25m51.037.5c.02 1.65.244 2.204.498 1.231.254-.973.237-2.323-.037-3-.274-.677-.481.119-.461 1.769m-48.473 5.55c1.222 1.287 2.416 2.139 2.652 1.894.237-.244-.763-1.296-2.222-2.338L53.5 60.712l2.222 2.338m46.15-.3c-1.243 1.586-1.208 1.621.378.378 1.666-1.307 2.195-2.128 1.372-2.128-.207 0-.995.788-1.75 1.75m84.207-.167c.048 1.165.285 1.402.604.605.289-.722.253-1.585-.079-1.917-.332-.332-.568.258-.525 1.312m-95.81 2.11c.973.254 2.323.237 3-.037.677-.274-.119-.481-1.769-.461-1.65.02-2.204.244-1.231.498m-3.058 37.01c-.143 24.501-.579 37.01-1.349 38.7-1.236 2.713-5.885 4.844-8.64 3.96-1.021-.327-1.302-.208-.689.293.569.464 1.01 1.519.98 2.344-.03.825.917 2.566 2.105 3.869 1.626 1.785 3.173 2.356 6.27 2.313 2.531-.035 4.118.4 4.127 1.131.016 1.279 2.001-1.851 4.458-7.031 1.176-2.477 1.517-6.849 1.483-19-.024-8.68-.413-17.694-.865-20.032-.502-2.592-.452-4.25.127-4.25.522 0 .742-.562.49-1.25-.252-.687-1.019-1.119-1.706-.959-.748.174-1.016-.313-.668-1.218.318-.83.166-1.764-.339-2.076-.555-.343-.539-1.567.04-3.09.528-1.387.557-2.273.067-1.97-.878.542-2.571-2.22-2.261-3.687.088-.412-.291-.75-.841-.75s-1.095 1.912-1.211 4.25c-.117 2.338-.471-2.95-.789-11.75-.437-12.112-.629-7.204-.789 20.203m39.661-33.953c-1.243 1.586-1.208 1.621.378.378 1.666-1.307 2.195-2.128 1.372-2.128-.207 0-.995.787-1.75 1.75m-17.586 5.75c.008 2.75.202 3.756.432 2.236.229-1.52.223-3.77-.014-5-.237-1.23-.425.014-.418 2.764m48.586-2.75c-1.243 1.586-1.208 1.621.378.378.963-.755 1.75-1.543 1.75-1.75 0-.823-.821-.294-2.128 1.372M71.232 74c0 1.925.206 2.713.457 1.75.252-.963.252-2.537 0-3.5-.251-.963-.457-.175-.457 1.75m-47.074 4c0 1.375.227 1.938.504 1.25.278-.687.278-1.812 0-2.5-.277-.687-.504-.125-.504 1.25m168.304 48.5c.001 26.4.13 37.056.287 23.681.158-13.376.158-34.976 0-48-.158-13.025-.287-2.081-.287 24.319M131 83.378c0 .207.787.995 1.75 1.75 1.586 1.243 1.621 1.208.378-.378-1.307-1.666-2.128-2.195-2.128-1.372M71.195 88.5c.02 1.65.244 2.204.498 1.231.254-.973.237-2.323-.037-3-.274-.677-.481.119-.461 1.769m34.289 9.525c-.906 1.467.3 2.851 3.834 4.4 1.75.768 5.318 3.461 7.928 5.985 2.611 2.525 5.172 4.59 5.691 4.59 2.483 0 1.527-2.114-3.236-7.159-5.187-5.495-12.998-9.788-14.217-7.816M129 101.378c0 .207.787.995 1.75 1.75 1.586 1.243 1.621 1.208.378-.378-1.307-1.666-2.128-2.195-2.128-1.372m29.613 2.805c.289.467.944.591 1.456.274 1.308-.808 1.161-1.124-.525-1.124-.801 0-1.22.383-.931.85m-87.534 4.4c.048 1.165.285 1.402.604.605.289-.722.253-1.585-.079-1.917-.332-.332-.568.258-.525 1.312m66.921-.27c0 .172 1.463 1.635 3.25 3.25l3.25 2.937-2.937-3.25c-2.738-3.029-3.563-3.71-3.563-2.937m23.179 11.341c-.046 8.181-1.996 12.959-7.341 17.984-5.912 5.558-9.452 6.845-18.838 6.845-9.356 0-12.788-1.24-18.95-6.845l-3.449-3.138 2.949 3.713c6.471 8.145 7.783 10.06 7.783 11.352 0 .741.363 1.123.805.849.443-.273 2.036.309 3.54 1.294 2.123 1.392 4.772 1.792 11.856 1.792 8.433 0 9.397-.21 12.765-2.779l3.643-2.779 2.029 2.029c3.333 3.333 6.399 2.388 7.585-2.338.474-1.888.289-3.111-.547-3.628-1.013-.625-1.017-1.804-.021-5.956 1.578-6.578.852-15.344-1.745-21.081l-2.024-4.468-.04 7.154M71.158 118c0 1.375.227 1.938.504 1.25.278-.687.278-1.812 0-2.5-.277-.687-.504-.125-.504 1.25m52.385-.069c-.317.512-.193 1.167.274 1.456.467.289.85-.13.85-.931 0-1.686-.316-1.833-1.124-.525M109.429 120c0 1.295.338 1.633.985.986.648-.648.648-1.324 0-1.972-.647-.647-.985-.309-.985.986m6.84-.307c.973.254 2.323.237 3-.037.677-.274-.119-.481-1.769-.461-1.65.02-2.204.244-1.231.498m15.336 6.472c.224.365-.158.91-.849 1.21-.691.3.094.302 1.744.004 2.302-.415 2.651-.293 1.5.525-1.774 1.26-.337 1.315 2.5.096l2-.859-2-.086c-1.487-.064-1.658-.303-.666-.931.885-.561.33-.808-1.652-.735-1.642.061-2.802.41-2.577.776m-23.569 12.291c-.664.801-.943 1.886-.618 2.411.798 1.292 3.917.75 4.203-.729.126-.654.009-.752-.261-.219-.269.533-1.147.716-1.95.408-1.123-.431-1.195-.881-.313-1.944.631-.761.923-1.383.648-1.383s-1.044.655-1.709 1.456m-45.161.044c-.502 2.008-.232 6.221.375 5.845.413-.254.75-.013.75.537 0 1.433-2.206 2.616-4.25 2.28-.962-.158-1.75.217-1.75.834s-.495.816-1.1.442c-.79-.488-.786-.094.012 1.398 1.635 3.055 4.166 4.193 6.521 2.932 2.824-1.511 5.423-4.98 4.85-6.473-.268-.698-.024-2.599.542-4.223.818-2.347.757-2.849-.297-2.445-.729.28-1.623.029-1.986-.559-.663-1.073-3.433-1.502-3.667-.568M72.5 144c.995 1.1 2.035 2 2.31 2 .275 0-.315-.9-1.31-2-.995-1.1-2.035-2-2.31-2-.275 0 .315.9 1.31 2m25.233 4.253c-.312.814.252 1.396 1.441 1.485 1.075.081 1.785-.361 1.578-.983-.569-1.706-2.438-2.017-3.019-.502m76.346 3.33c.048 1.165.285 1.402.604.605.289-.722.253-1.585-.079-1.917-.332-.332-.568.258-.525 1.312m-125.421 4.866c-.371.967-.076 1.265.887.895.794-.304 1.195-.956.89-1.449-.766-1.24-1.132-1.126-1.777.554m121.675 2.007c0 .801.383 1.22.85.931.467-.289.591-.944.274-1.456-.808-1.308-1.124-1.161-1.124.525M45.638 159.5c.317.825.753 1.5.969 1.5.216 0 .393-.675.393-1.5s-.436-1.5-.969-1.5c-.532 0-.709.675-.393 1.5m119.803.055c-1.83 1.467-1.798 1.487.559.365 3.061-1.458 3.628-1.92 2.358-1.92-.537 0-1.849.7-2.917 1.555m-13.404.696c-5.171 1.369-9.051 4.563-11.099 9.135-1.811 4.046-1.838 4.061-2.82 1.599-.965-2.418-.993-2.425-1.055-.235-.034 1.238-.561 2.25-1.17 2.25-.62 0-.839-.77-.498-1.75.508-1.459.36-1.427-.893.191-.826 1.068-1.502 2.337-1.502 2.822 0 .484-1.238.74-2.75.57-1.609-.182-2.665.147-2.545.794.221 1.185-3.855 1.337-4.731.176-.908-1.202-3.067.781-3.232 2.968-.086 1.15-.521 1.866-.966 1.591-.445-.275-.507-.989-.138-1.586.409-.662.204-.796-.527-.344-.659.407-1.807.236-2.55-.381-1.052-.873-1.318-.727-1.206.664.08.982.82 2.091 1.645 2.465 1.25.566 1.218.691-.191.75-2.248.093-3.129-1.518-2.406-4.399.585-2.333 1.932-2.703 4.347-1.194.705.44 1.25.319 1.25-.278 0-1.131-1.086-1.406-4.878-1.234-1.308.059-3.258-.363-4.333-.938-1.9-1.017-1.903-1.107-.122-3.199 1.788-2.101 1.787-2.117-.071-.671-1.047.816-2.059 1.37-2.25 1.233-.19-.137-.857-.25-1.481-.25-.624 0 .051.933 1.5 2.073 3.176 2.498 3.24 3.422.544 7.845-1.629 2.672-2.279 3.108-2.981 2-.762-1.204-.906-1.192-.958.082-.033.825-.678.15-1.434-1.5-.755-1.65-1.417-2.325-1.47-1.5-.059.92-.381 1.1-.831.467-.841-1.183-3.235-1.343-3.235-.217v2.25c0 .825.498 1.5 1.107 1.5s.839-.698.511-1.552c-.341-.89-.173-1.291.393-.941.544.336.989 1.5.989 2.587 0 1.666-.314 1.809-2 .906-1.1-.589-2-1.782-2-2.652 0-1.177-.575-1.405-2.25-.894-4.481 1.37-6.918 1.454-5.88.202.688-.828.256-1.521-1.447-2.324-1.334-.63-2.198-.777-1.919-.326.841 1.362-2.433.476-3.764-1.018-.954-1.071-.794-1.057.697.06 1.758 1.317 1.874 1.282 1.25-.38-.378-1.007-.687-2.293-.687-2.857 0-.564-.652-.775-1.449-.469-.909.349-1.704-.263-2.133-1.643-1.3-4.177-5.931-9.6-9.633-11.283-5.953-2.705-13.754-.956-13.754 3.084 0 .55.436.325.969-.5.646-1 .974-1.083.985-.25.008.688.915 1.25 2.015 1.25s2 .378 2 .839c0 1.038 5.131 3.605 6.5 3.252.55-.142.676.067.28.463-.397.396.105 1.896 1.115 3.333 1.01 1.437 2.158 4.807 2.551 7.489.937 6.395 3.764 9.19 10.19 10.074 2.728.375 5.47.998 6.094 1.383.624.386 1.953 3.169 2.952 6.184 1.569 4.731 2.288 5.635 5.243 6.59 5.084 1.643 7.395 4.991 6.652 9.638-1.203 7.523 3.95 12.488 8.911 8.586 2.203-1.733 2.512-2.743 2.512-8.215 0-6.507 2.162-10.616 5.584-10.616 2.324 0 6.416-4.633 6.416-7.263 0-4.007 2.112-5.727 7.873-6.409 7.177-.849 9.854-3.315 11.139-10.258.552-2.987 1.788-6.327 2.746-7.422 1.038-1.187 1.174-1.658.337-1.165-.947.557-1.172.451-.69-.328.392-.635 1.145-1.155 1.674-1.155.528 0 2.743-1.125 4.921-2.5 2.178-1.375 4.63-2.5 5.449-2.5 2.001 0 .952-2.514-1.783-4.273-1.594-1.025-3.081-1.151-5.629-.476M101.5 162c.34.55 1.068 1 1.618 1s.722-.45.382-1c-.34-.55-1.068-1-1.618-1s-.722.45-.382 1m-49 1c.34.55.816 1 1.059 1s.441-.45.441-1-.477-1-1.059-1-.781.45-.441 1m87.124 3.539c-.343.893-.595 2.15-.561 2.793.035.642.495.09 1.022-1.227.527-1.318.779-2.574.56-2.793-.219-.219-.679.333-1.021 1.227m-101.027 2.305c-.346.56-.142 1.319.453 1.687 1.538.95 2.53-.351 1.246-1.635-.718-.718-1.277-.735-1.699-.052M175 171c-1.213.784-1.069.972.75.985 1.238.008 2.25-.435 2.25-.985 0-1.253-1.061-1.253-3 0m-94.5 1c-.34.55-.141 1 .441 1S82 172.55 82 172s-.198-1-.441-1-.719.45-1.059 1m22.65 2.309c-.083.995-.553 1.56-1.045 1.256-.977-.604-2.48 2.393-1.629 3.245.288.288.524-.071.524-.796 0-.764.842-.349 2 .986 1.1 1.268 2.007 1.9 2.015 1.403.009-.497.452-.228.985.597.593.918.975 1.034.985.3.008-.66-.621-1.56-1.398-2-.778-.44-1.61-2.15-1.85-3.8-.241-1.65-.505-2.186-.587-1.191M136 174c-.793.49-1.217 1.116-.942 1.391.275.275 1.149.099 1.942-.391.793-.49 1.217-1.116.942-1.391-.275-.275-1.149-.099-1.942.391m-111.921 1.583c.048 1.165.285 1.402.604.605.289-.722.253-1.585-.079-1.917-.332-.332-.568.258-.525 1.312M83 175.059c0 .582.45.781 1 .441s1-.816 1-1.059-.45-.441-1-.441-1 .477-1 1.059m15.419.292c-.346.901-1.101 1.346-1.678.989-.613-.379-.753-.169-.336.505.392.635 1.088 1.155 1.547 1.155 1.005 0 2.302-3.079 1.595-3.786-.275-.275-.783.237-1.128 1.137M91 177.559c0 .857.457 1.276 1.016.931.559-.346.758-1.047.441-1.559-.857-1.387-1.457-1.129-1.457.628m64.872.191c-1.243 1.586-1.208 1.621.378.378 1.666-1.307 2.195-2.128 1.372-2.128-.207 0-.995.787-1.75 1.75m33.628 1.625c-1.1 1.719-4.008 4.137-6.462 5.375-3.905 1.969-5.995 2.25-16.75 2.25-9.126 0-12.306-.322-12.358-1.25-.069-1.223-1.721 1.95-1.86 3.572-.038.452 6.604.677 14.762.5 14.479-.314 14.919-.389 18.501-3.124 3.559-2.718 7.109-8.001 6.478-9.641-.171-.444-1.211.599-2.311 2.318M25 178.872c0 1.741 6.71 8.527 9.643 9.752 2.223.929 7.526 1.376 16.325 1.376C61.885 190 64 189.757 64 188.5c0-1.251-2.03-1.501-12.25-1.506-14.5-.006-19.022-1.066-23.453-5.497-1.813-1.813-3.297-2.995-3.297-2.625m84.603 2.295c.283.458.938.833 1.456.833s.941-.375.941-.833c0-.459-.655-.834-1.456-.834-.801 0-1.224.375-.941.834M91 184.059c0 .582.45.781 1 .441s1-.816 1-1.059-.45-.441-1-.441-1 .477-1 1.059m17.583-.193c-.431.697-.513 1.537-.183 1.867.895.895 1.871-.421 1.387-1.871-.338-1.016-.574-1.016-1.204.004m-41.03 34.049a1.116 1.116 0 0 0 .362 1.532c.521.322 1.21.159 1.532-.362a1.116 1.116 0 0 0-.362-1.532 1.116 1.116 0 0 0-1.532.362"
    fill="#ff9a00"
    fill-rule="evenodd"
  />
  <path
    d="M28.813.683c.721.289 1.584.253 1.916-.079.332-.332-.258-.568-1.312-.525-1.165.048-1.402.285-.604.604M204 8.313c0 .172 1.463 1.635 3.25 3.25l3.25 2.937-2.937-3.25C204.825 8.221 204 7.54 204 8.313M30.5 15.037c-7.77 1.628-13.873 7.29-14.99 13.907-1.345 7.959 1.303 12.431 11.677 19.722 7.688 5.402 9.765 13.433 5.759 22.265-1.929 4.252-2.009 6.431-1.965 53.806.051 54.219-.128 52.584 6.118 55.814C40.409 182.263 62 182.652 62 181c0-1.725-3.829-4.92-6.725-5.612-5.804-1.388-6.998-4.888-2.794-8.194l2.481-1.952-2.925-.585c-5.208-1.041-8.985-5.469-9.946-11.657-1.088-7.016-.331-79.344.88-84 .542-2.083.547-5.322.013-8-1.621-8.134-1.144-22.051.912-26.579 2.222-4.891 6.084-8.139 10.71-9.007 2.854-.535 4.532.044 10.411 3.596 8.259 4.99 10.579 4.925 17.98-.508L87.768 25h36.656c34.542 0 36.879.114 40.532 1.977 7.908 4.035 10.62 11.095 9.576 24.927-.399 5.278-.658 11.171-.577 13.096.787 18.673 1.373 85.511.78 88.992-.897 5.269-3.815 8.564-9.318 10.525-2.154.767-3.365 1.415-2.69 1.439.675.024 1.944 1.139 2.821 2.477 1.866 2.848.546 6.564-2.333 6.571-2.647.006-8.215 3.776-8.215 5.563 0 1.394 1.588 1.554 12.574 1.265l12.574-.332 2.899-3.5 2.899-3.5.027-49.213c.026-47.635-.04-49.383-2.067-54.5-2.509-6.333-2.183-13.585.791-17.611 1.087-1.472 4.52-4.373 7.63-6.447 5.813-3.877 9.694-9.483 9.651-13.939-.029-3.049-3.582-10.754-5.748-12.467-.952-.752-3.53-2.37-5.73-3.596l-4-2.227-76.5-.046c-42.075-.025-77.85.237-79.5.583m2.931 12.075c-.754 1.22 1.492 3.054 2.771 2.263.439-.271.798-1.141.798-1.934 0-1.697-2.577-1.935-3.569-.329m49.615 3.414c-6.829 4.35-12.046 4.642-17.451.974-5.6-3.8-8.739-3.175-5.89 1.172 3.868 5.903 14.939 8.11 22.085 4.403 5.519-2.864 10.666-7.527 9.82-8.898-1.129-1.826-2.677-1.401-8.564 2.349m98.4-2.439c-1.03 1.668 1.287 3.58 2.667 2.2C185.267 29.133 184.545 27 183 27c-.485 0-1.184.489-1.554 1.087M.079 29.583c.048 1.165.285 1.402.604.605.289-.722.253-1.585-.079-1.917-.332-.332-.568.258-.525 1.312m216.039 3.108c-.065 2.305.332 4.469.882 4.809 1.129.698 1.129-1.563 0-6-.721-2.834-.77-2.768-.882 1.191M31 33.5c0 .825.675 1.5 1.5 1.5s1.5-.675 1.5-1.5-.675-1.5-1.5-1.5-1.5.675-1.5 1.5m156 1c0 .917.484 1.505 1.075 1.308.591-.197 1.075-.785 1.075-1.308s-.484-1.111-1.075-1.308c-.591-.197-1.075.391-1.075 1.308m-29.874.848c-.855 1.031-.625 1.796.98 3.248 2.566 2.322 5.017 6.888 5.851 10.898.353 1.698 1.364 3.137 2.336 3.324 4.53.872 2.622-8.692-2.968-14.88-3.902-4.319-4.542-4.586-6.199-2.59M52.151 43.074C49.592 45.458 49.286 49 51.64 49c1.943 0 4.283-2.807 4.328-5.191.05-2.637-1.463-2.928-3.817-.735m158.721 6.676c-1.243 1.586-1.208 1.621.378.378 1.666-1.307 2.195-2.128 1.372-2.128-.207 0-.995.788-1.75 1.75M7 52.313c0 .172 1.462 1.635 3.25 3.25L13.5 58.5l-2.937-3.25C7.825 52.221 7 51.54 7 52.313m199.405 2.937L204.5 57.5l2.25-1.905c1.238-1.048 2.25-2.06 2.25-2.25 0-.8-.805-.209-2.595 1.905M15.465 127c0 28.325.128 39.913.284 25.75.157-14.162.157-37.337 0-51.5-.156-14.162-.284-2.575-.284 25.75m185.767-48c0 1.925.206 2.713.457 1.75.252-.963.252-2.537 0-3.5-.251-.963-.457-.175-.457 1.75M56.011 119.487c-1.479 1.782-.694 4.314 1.611 5.198 2.368.909 4.616-2.372 3.304-4.823-1.201-2.244-3.235-2.399-4.915-.375m40.677 38.159c-1.374 1.374-.662 3.496 1.062 3.164.963-.186 1.75-.969 1.75-1.74 0-1.579-1.764-2.472-2.812-1.424m-58.352 10.921c-.834 2.172 1.282 4.215 2.797 2.7 1.28-1.28.487-4.267-1.133-4.267-.585 0-1.333.705-1.664 1.567m135.844 2.683c.176 1.238.995 2.25 1.82 2.25.825 0 1.644-1.012 1.82-2.25.245-1.732-.174-2.25-1.82-2.25-1.646 0-2.065.518-1.82 2.25m27.052 3.75c0 1.925.206 2.713.457 1.75.252-.963.252-2.537 0-3.5-.251-.963-.457-.175-.457 1.75m-95.538.639c-.933.934.194 2.361 1.865 2.361.793 0 1.441-.675 1.441-1.5 0-1.506-2.111-2.056-3.306-.861M22 191.5c1.292 1.375 2.574 2.5 2.849 2.5.275 0-.557-1.125-1.849-2.5-1.292-1.375-2.574-2.5-2.849-2.5-.275 0 .557 1.125 1.849 2.5m26.304 7.247c5.943.177 15.393.176 21-.002 5.608-.178.746-.323-10.804-.322-11.55.001-16.138.147-10.196.324m99 0c5.943.177 15.393.176 21-.002 5.608-.178.746-.323-10.804-.322-11.55.001-16.138.147-10.196.324M69.75 209.662c.688.278 1.813.278 2.5 0 .688-.277.125-.504-1.25-.504s-1.937.227-1.25.504m72.278.804c-.669.807-.985 2.044-.701 2.75.332.827.543.679.594-.416.043-.935.866-2.159 1.829-2.72.963-.561 1.243-1.033.622-1.05-.62-.016-1.675.63-2.344 1.436M65.2 215.2c-1.415 1.415-1.584 4.444-.293 5.242.498.309.67-.342.382-1.446-.289-1.104.033-2.679.715-3.501 1.482-1.785.899-1.998-.804-.295m84.668.045c.752.959 1.132 2.647.843 3.751-.288 1.104-.116 1.755.382 1.446 1.503-.929 1.022-4.107-.843-5.57-1.585-1.243-1.621-1.207-.382.373M94.232 218c0 1.925.206 2.713.457 1.75.252-.963.252-2.537 0-3.5-.251-.963-.457-.175-.457 1.75m-23.407.326c-.373 1.825-.233 2.482.393 1.856.533-.533.793-1.805.576-2.826-.291-1.375-.543-1.123-.969.97m36.444 15.367c.973.254 2.323.237 3-.037.677-.274-.119-.481-1.769-.461-1.65.02-2.204.244-1.231.498"
    fill="#f8f4d5"
    fill-rule="evenodd"
  />
  <path
    d="M27.024 1.585C16.535 4.438 8.064 11.112 3.815 19.873 1.074 25.523.276 35.341 2.043 41.655c1.669 5.961 7.919 13.782 14.067 17.604 2.689 1.672 4.89 3.397 4.89 3.833 0 .437-1.012 2.507-2.25 4.601-2.249 3.805-2.25 3.833-2.533 58.131l-.283 54.325 2.257 4.518c1.241 2.485 3.724 5.807 5.518 7.383 5.702 5.006 11.239 5.95 34.901 5.95 23.242 0 23.591.083 24.882 5.963.605 2.756 5.542 8.037 7.513 8.037 1.97 0 3.995 3.389 3.995 6.685 0 4.501 3.671 11.093 7.19 12.913 8.854 4.579 19.804-3.069 19.808-13.835.002-3.269.501-4.053 3.977-6.247 4.17-2.633 6.322-5.343 7.556-9.516.406-1.375 1.24-2.831 1.854-3.235.613-.404 10.851-.741 22.75-.75 26.159-.018 29.695-.807 36.238-8.085 2.337-2.6 4.784-6.512 5.438-8.694.852-2.842 1.189-18.519 1.189-55.227V74.75l-2.711-6.041c-2.574-5.735-2.619-6.095-.893-7.125 8.892-5.303 15.639-13.305 17.728-21.025 1.586-5.862.487-14.79-2.597-21.092C209.263 12.794 201.482 5.766 194 2.731L188.5.5l-78-.202C44.088.126 31.686.317 27.024 1.585M26.5 9.716c-8.533 3.441-14.349 9.953-16.683 18.679-2.488 9.301 2.539 19.384 12.241 24.555 9.001 4.798 9.968 8.291 4.916 17.758l-3.026 5.671.276 51.218.276 51.219 3.071 3.842c5.128 6.416 8.043 7.339 23.179 7.34 7.288.001 13.25-.249 13.25-.555 0-.307-.512-2.669-1.138-5.25C61.576 178.891 58.57 175 55.76 175c-2.755 0-5.76-1.844-5.76-3.535 0-2.496 3.83-5.465 7.05-5.465 7.004 0 13.239 6.22 14.41 14.376.918 6.395 3.741 9.189 10.176 10.074 2.728.375 5.47.998 6.094 1.383.624.386 1.953 3.169 2.952 6.184 1.569 4.731 2.288 5.635 5.243 6.59 5.084 1.643 7.395 4.991 6.652 9.638-1.203 7.523 3.95 12.488 8.911 8.586 2.203-1.733 2.512-2.743 2.512-8.215 0-6.507 2.162-10.616 5.584-10.616 2.324 0 6.416-4.633 6.416-7.263 0-4.007 2.112-5.727 7.873-6.409 7.129-.844 9.856-3.326 11.112-10.115 1.159-6.269 3.221-9.342 8.151-12.145 6.45-3.668 12.864-2.241 12.864 2.86 0 2.878-1.458 4.072-4.971 4.072-2.887 0-6.062 3.21-6.924 7-.438 1.925-1.132 4.546-1.541 5.823l-.745 2.324 14.922-.324c14.578-.316 15.007-.388 18.592-3.125 7.465-5.7 7.167-3.194 7.167-60.198v-51l-2.75-5.217c-4.736-8.983-3.694-12.444 5.343-17.749 7.729-4.536 11.208-9.894 11.728-18.059.721-11.327-5.411-20.231-16.95-24.616-4.62-1.755-9.194-1.856-82.132-1.807-68.665.045-77.683.23-81.239 1.664m49 40.037c-16.924.238-18.105.379-19.75 2.361-.962 1.159-1.75 3.563-1.75 5.342 0 4.899 2.949 6.95 10.852 7.544l6.648.5.5 37.5c.275 20.625.881 38.09 1.347 38.812 2.568 3.975 10.467 3.086 12.515-1.409.783-1.718 1.138-13.677 1.138-38.328 0-40.288-.306-38.693 7.203-37.567 3.541.531 4.825.258 7.062-1.502 3.136-2.466 3.691-7.197 1.253-10.677-1.867-2.665-4.283-2.896-27.018-2.576m53.586.291c-5.991 1.232-11.288 4.939-15.25 10.674-2.824 4.088-3.357 5.81-3.671 11.866-.627 12.104 2.425 16.341 22.835 31.694 9.028 6.791 13 11.503 13 15.42 0 6.31-6.335 11.581-12.722 10.586-3.148-.491-5.551-2.34-9.952-7.657-3.937-4.755-11.418-3.092-12.915 2.871-.848 3.38.294 6.169 4.373 10.685 5.827 6.449 10.318 8.292 20.216 8.296 9.386.004 12.924-1.281 18.838-6.841 5.32-5.003 7.304-9.821 7.279-17.68-.036-11.395-5.336-18.76-21.803-30.299C128.684 82.21 125 78.017 125 73.366c0-5.209 4.68-9.366 10.545-9.366 3.618 0 5.096.66 8.949 3.995 5.888 5.096 8.852 5.883 12.343 3.279 4.326-3.226 4.167-7.739-.467-13.246-5.499-6.535-17.398-10.017-27.284-7.984M68.362 211.5c-.876 2.281.349 4.5 2.484 4.5 2.48 0 4.358-2.305 3.564-4.373-.784-2.044-5.277-2.138-6.048-.127m74 0c-.858 2.234.335 4.502 2.357 4.485 3.032-.026 4.551-1.56 3.821-3.86-.795-2.505-5.283-2.959-6.178-.625"
    fill="#1f0604"
    fill-rule="evenodd"
  />
  <path
    d="M28 9.667c-10.943 3.821-17.244 11.711-17.807 22.301-.457 8.607 2.335 14.187 9.364 18.718C28.652 56.547 30.2 58.219 30.2 62.183c0 2.179-1.135 5.55-2.85 8.468L24.5 75.5v50.676c0 49.954.03 50.716 2.105 53.5 4.292 5.76 7.568 6.791 22.79 7.173 12.687.319 13.839.203 13.25-1.332-.355-.924-.645-2.094-.645-2.599 0-.505-4.972-.918-11.05-.918-12.003 0-15.413-1.006-18.288-5.393-1.456-2.222-1.64-7.904-1.681-51.87-.044-47.375.036-49.554 1.965-53.806 4.006-8.832 1.929-16.863-5.759-22.265-10.374-7.291-13.022-11.763-11.677-19.722.83-4.914 4.393-9.322 9.866-12.204l4.124-2.172 78.5-.034 78.5-.034 4 2.227c2.2 1.226 4.778 2.844 5.73 3.596 2.166 1.713 5.719 9.418 5.748 12.467.043 4.456-3.838 10.062-9.651 13.939-3.11 2.074-6.543 4.975-7.63 6.447-2.974 4.026-3.3 11.278-.791 17.611 2.027 5.117 2.093 6.865 2.067 54.5l-.027 49.213-2.9 3.5-2.9 3.5h-26.144l-.001 2.75L154 187h12.288c10.757 0 12.843-.28 16.742-2.25 2.45-1.237 5.47-3.779 6.712-5.648l2.258-3.398V76.835l-3.06-6.971c-2.717-6.191-2.932-7.358-1.922-10.418.625-1.895 1.524-3.446 1.996-3.446s3.653-2.7 7.067-6c3.415-3.3 5.908-6 5.541-6-.736 0 2.349-5.153 3.641-6.081 1.542-1.108.99-11.529-.793-14.977-2.712-5.244-8.976-10.613-15.019-12.874-5.412-2.025-7.088-2.067-81.239-2.02-66.167.041-76.279.246-80.212 1.619m23.5 16.736c-6.782 2.993-9.517 9.158-9.456 21.315.024 4.83.447 10.807.94 13.282.534 2.678.529 5.917-.013 8-1.211 4.656-1.968 76.984-.88 84 .652 4.2 1.557 6.135 3.828 8.188 3.136 2.834 8.891 4.889 13.081 4.67 2.348-.122 2.364-.157.25-.564-1.237-.238-2.257-.964-2.265-1.614-.009-.694-.415-.563-.985.32-.533.825-.969 1.05-.969.5 0-4.04 7.801-5.789 13.754-3.084 3.702 1.683 8.333 7.106 9.633 11.283.429 1.38 1.224 1.992 2.133 1.643.797-.306 1.449-.095 1.449.469s.309 1.85.687 2.857c.624 1.662.508 1.697-1.25.38-1.491-1.117-1.651-1.131-.697-.06 1.331 1.494 4.605 2.38 3.764 1.018-.279-.451.585-.304 1.919.326 1.703.803 2.135 1.496 1.447 2.324-1.038 1.252 1.399 1.168 5.88-.202 1.675-.511 2.25-.283 2.25.894 0 .87.9 2.063 2 2.652 1.686.903 2 .76 2-.906 0-1.087-.445-2.251-.989-2.587-.566-.35-.734.051-.393.941.328.854.098 1.552-.511 1.552S97 183.325 97 182.5a75.9 75.9 0 0 0-.027-2.187c-.016-.378.659-.789 1.5-.912.84-.123 1.534.299 1.542.937.009.681.395.562.932-.286.715-1.13 1.069-.835 1.617 1.345.512 2.043.93 2.432 1.553 1.448.69-1.089.862-1.059.901.155.035 1.08.578.865 1.943-.771 1.111-1.332 2.156-1.849 2.526-1.25.81 1.311 2.513 1.325 2.513.021 0-.55-.542-.887-1.205-.75-.725.15-1.222-.973-1.25-2.821-.043-2.961.098-3.063 3.955-2.841 5.599.323 5.5.296 5.5 1.471 0 .597-.545.718-1.25.278-2.415-1.509-3.762-1.139-4.347 1.194-.723 2.881.158 4.492 2.406 4.399 1.409-.059 1.441-.184.191-.75-.825-.374-1.565-1.483-1.645-2.465-.112-1.391.154-1.537 1.206-.664.743.617 1.891.788 2.55.381.731-.452.936-.318.527.344-.369.597-.307 1.311.138 1.586.445.275.88-.441.966-1.591.165-2.187 2.324-4.17 3.232-2.968.876 1.161 4.952 1.009 4.731-.176-.12-.647.936-.976 2.545-.794 1.512.17 2.75-.086 2.75-.57 0-.485.676-1.754 1.502-2.822 1.253-1.618 1.401-1.65.893-.191-.341.98-.122 1.75.498 1.75.609 0 1.136-1.012 1.17-2.25.062-2.19.09-2.183 1.055.235.982 2.462 1.009 2.447 2.82-1.599 2.067-4.616 5.829-7.682 11.267-9.179 3.342-.921 3.977-.766 6.5 1.583l2.795 2.605-2.5.703c-2.016.567-2.113.721-.5.797 3.794.178 9.616-2.027 12.753-4.83 2.517-2.249 3.142-3.587 3.124-6.688-.012-2.132.46-4.208 1.05-4.612.761-.521.758-.739-.011-.75-.678-.009-.961-1.941-.757-5.172.195-3.088-.173-5.773-.917-6.692-.987-1.22-.988-1.382-.001-.789.982.589 1.151-6.423.81-33.559-.237-18.866-.501-35.878-.587-37.803-.086-1.925.169-7.818.568-13.096 1.044-13.832-1.668-20.892-9.576-24.927-3.653-1.863-5.99-1.977-40.532-1.977H87.768l-4.771 3.502c-7.364 5.406-9.737 5.488-17.794.62-7.331-4.429-9.055-4.771-13.703-2.719m-18.069.709c-.754 1.22 1.492 3.054 2.771 2.263.439-.271.798-1.141.798-1.934 0-1.697-2.577-1.935-3.569-.329m49.615 3.414c-6.829 4.35-12.046 4.642-17.451.974-5.6-3.8-8.739-3.175-5.89 1.172 3.868 5.903 14.939 8.11 22.085 4.403 5.519-2.864 10.666-7.527 9.82-8.898-1.129-1.826-2.677-1.401-8.564 2.349m98.4-2.439c-1.03 1.668 1.287 3.58 2.667 2.2C185.267 29.133 184.545 27 183 27c-.485 0-1.184.489-1.554 1.087M.158 33c0 1.375.227 1.938.504 1.25.278-.687.278-1.812 0-2.5-.277-.687-.504-.125-.504 1.25M31 33.5c0 .825.675 1.5 1.5 1.5s1.5-.675 1.5-1.5-.675-1.5-1.5-1.5-1.5.675-1.5 1.5m156 1c0 .917.484 1.505 1.075 1.308.591-.197 1.075-.785 1.075-1.308s-.484-1.111-1.075-1.308c-.591-.197-1.075.391-1.075 1.308m-29.874.848c-.855 1.031-.625 1.796.98 3.248 2.566 2.322 5.017 6.888 5.851 10.898.353 1.698 1.364 3.137 2.336 3.324 4.53.872 2.622-8.692-2.968-14.88-3.902-4.319-4.542-4.586-6.199-2.59M52.151 43.074C49.592 45.458 49.286 49 51.64 49c1.943 0 4.283-2.807 4.328-5.191.05-2.637-1.463-2.928-3.817-.735m3.655 8.966c-2.535 2.535-2.935 3.563-2.411 6.184C54.5 63.748 56.487 65 64.155 65c4.748 0 6.88.383 6.96 1.25.063.688.209 17.63.325 37.649l.21 36.399 2.925 2.614c1.609 1.437 2.916 3.282 2.904 4.101-.011.818.951 2.553 2.139 3.856 1.626 1.785 3.173 2.356 6.27 2.313 2.531-.035 4.118.4 4.127 1.131.016 1.279 2.001-1.851 4.458-7.031 1.176-2.477 1.517-6.849 1.483-19-.024-8.68-.413-17.694-.865-20.032-.502-2.592-.452-4.25.127-4.25.522 0 .742-.562.49-1.25-.252-.687-1.019-1.119-1.706-.959-.748.174-1.016-.313-.668-1.218.318-.83.166-1.764-.339-2.076-.555-.343-.539-1.567.04-3.09.528-1.387.557-2.273.067-1.97-.878.542-2.571-2.22-2.261-3.687.088-.412-.265-.75-.784-.75-.518 0-1.114 1.912-1.325 4.25-.21 2.338-.461-3.062-.557-12L88 65h6.045c5.086 0 6.436-.39 8.5-2.455 3.303-3.302 3.139-7.015-.468-10.622L99.154 49H58.846l-3.04 3.04m69.699-1.497c-9.5 3.619-17.193 15.503-16.209 25.04.971 9.408 6.162 16.158 20.704 26.92 16.529 12.233 19.533 18.986 11.325 25.463-5.027 3.966-14.918 1.043-16.827-4.972-.604-1.904-4.576-3.994-7.591-3.994-1.099 0-3.075 1.077-4.392 2.394-1.317 1.317-2.575 2.212-2.797 1.99-.222-.222-.1 1.597.271 4.041.397 2.617 1.874 5.957 3.593 8.122 1.605 2.023 3.576 4.64 4.38 5.815.804 1.176 2.494 3.414 3.756 4.973 1.263 1.559 1.998 3.316 1.634 3.904-.385.623-.191.779.465.374.62-.383 2.357.11 3.861 1.095 2.123 1.392 4.772 1.792 11.856 1.792 8.433 0 9.397-.21 12.765-2.779l3.643-2.779 2.029 2.029c3.333 3.333 6.399 2.388 7.585-2.338.474-1.888.289-3.111-.547-3.628-1.013-.625-1.017-1.804-.021-5.956 1.883-7.849.808-15.84-3.293-24.476-3.953-8.324-9.046-14.345-17.498-20.685-3.133-2.351-8.087-6.063-11.009-8.25-5.404-4.045-8.188-7.96-8.188-11.512 0-3.219 4.738-7.986 8.672-8.724 3.962-.743 9.978 1.521 10.98 4.134.765 1.994 5.572 4.464 8.688 4.464 1.341 0 3.463-.83 4.716-1.844 5.144-4.166.918-13.675-8.309-18.697-6.376-3.47-17.794-4.373-24.242-1.916M201.461 127c0 25.025.129 35.263.288 22.75.159-12.512.159-32.987 0-45.5-.159-12.512-.288-2.275-.288 22.75m-95.977-28.975c-.906 1.467.3 2.851 3.834 4.4 1.75.768 5.318 3.461 7.928 5.985 2.611 2.525 5.172 4.59 5.691 4.59 2.483 0 1.527-2.114-3.236-7.159-5.187-5.495-12.998-9.788-14.217-7.816m53.129 6.158c.289.467.944.591 1.456.274 1.308-.808 1.161-1.124-.525-1.124-.801 0-1.22.383-.931.85m-35.07 13.748c-.317.512-.193 1.167.274 1.456.467.289.85-.13.85-.931 0-1.686-.316-1.833-1.124-.525m-67.532 1.556c-1.479 1.782-.694 4.314 1.611 5.198 2.368.909 4.616-2.372 3.304-4.823-1.201-2.244-3.235-2.399-4.915-.375m53.418.513c0 1.295.338 1.633.985.986.648-.648.648-1.324 0-1.972-.647-.647-.985-.309-.985.986m22.176 6.165c.224.365-.158.91-.849 1.21-.691.3.094.302 1.744.004 2.302-.415 2.651-.293 1.5.525-1.774 1.26-.337 1.315 2.5.096l2-.859-2-.086c-1.487-.064-1.658-.303-.666-.931.885-.561.33-.808-1.652-.735-1.642.061-2.802.41-2.577.776m-23.569 12.291c-.664.801-.943 1.886-.618 2.411.798 1.292 3.917.75 4.203-.729.126-.654.009-.752-.261-.219-.269.533-1.147.716-1.95.408-1.123-.431-1.195-.881-.313-1.944.631-.761.923-1.383.648-1.383s-1.044.655-1.709 1.456m-45.161.044c-.502 2.008-.232 6.221.375 5.845.413-.254.75-.013.75.537 0 1.433-2.206 2.616-4.25 2.28-.962-.158-1.75.217-1.75.834s-.495.816-1.1.442c-.79-.488-.786-.094.012 1.398 1.635 3.055 4.166 4.193 6.521 2.932 2.824-1.511 5.423-4.98 4.85-6.473-.268-.698-.024-2.599.542-4.223.818-2.347.757-2.849-.297-2.445-.729.28-1.623.029-1.986-.559-.663-1.073-3.433-1.502-3.667-.568M72.5 144c.995 1.1 2.035 2 2.31 2 .275 0-.315-.9-1.31-2-.995-1.1-2.035-2-2.31-2-.275 0 .315.9 1.31 2m25.233 4.253c-.312.814.252 1.396 1.441 1.485 1.075.081 1.785-.361 1.578-.983-.569-1.706-2.438-2.017-3.019-.502m-49.075 8.196c-.371.967-.076 1.265.887.895.794-.304 1.195-.956.89-1.449-.766-1.24-1.132-1.126-1.777.554m48.03 1.197c-1.374 1.374-.662 3.496 1.062 3.164.963-.186 1.75-.969 1.75-1.74 0-1.579-1.764-2.472-2.812-1.424m73.645.81c0 .801.383 1.22.85.931.467-.289.591-.944.274-1.456-.808-1.308-1.124-1.161-1.124.525M45.638 159.5c.317.825.753 1.5.969 1.5.216 0 .393-.675.393-1.5s-.436-1.5-.969-1.5c-.532 0-.709.675-.393 1.5m119.803.055c-1.83 1.467-1.798 1.487.559.365 3.061-1.458 3.628-1.92 2.358-1.92-.537 0-1.849.7-2.917 1.555M101.5 162c.34.55 1.068 1 1.618 1s.722-.45.382-1c-.34-.55-1.068-1-1.618-1s-.722.45-.382 1m-49 1c.34.55.816 1 1.059 1s.441-.45.441-1-.477-1-1.059-1-.781.45-.441 1m87.124 3.539c-.343.893-.595 2.15-.561 2.793.035.642.495.09 1.022-1.227.527-1.318.779-2.574.56-2.793-.219-.219-.679.333-1.021 1.227m-101.139 1.486c-.349.563-.094.901.566.75.659-.151 1.429.359 1.71 1.134.375 1.032.007 1.217-1.375.691-1.513-.576-1.639-.469-.636.541 1.609 1.621 3.786-.301 2.914-2.574-.686-1.788-2.245-2.054-3.179-.542m71.005 1.991c-.346.559-.956.814-1.357.566-.401-.247-1.252-.127-1.891.268-.785.485-.444 1.156 1.048 2.066 1.215.74 1.872.987 1.458.546-.414-.44-.007-1.624.905-2.631.911-1.007 1.389-1.831 1.061-1.831-.328 0-.879.457-1.224 1.016M174 170c0 1.253 1.061 1.253 3 0 1.213-.784 1.069-.972-.75-.985-1.238-.008-2.25.435-2.25.985m-93.5 2c-.34.55-.141 1 .441 1S82 172.55 82 172s-.198-1-.441-1-.719.45-1.059 1m94.3 1.2c.933.933 1.467.933 2.4 0 .933-.933.667-1.2-1.2-1.2s-2.133.267-1.2 1.2m-71.65 1.109c-.083.995-.553 1.56-1.045 1.256-.977-.604-2.48 2.393-1.629 3.245.288.288.524-.071.524-.796 0-.764.842-.349 2 .986 1.1 1.268 2.007 1.9 2.015 1.403.009-.497.452-.228.985.597.593.918.975 1.034.985.3.008-.66-.621-1.56-1.398-2-.778-.44-1.61-2.15-1.85-3.8-.241-1.65-.505-2.186-.587-1.191M136 174c-.793.49-1.217 1.116-.942 1.391.275.275 1.149.099 1.942-.391.793-.49 1.217-1.116.942-1.391-.275-.275-1.149-.099-1.942.391m-53 1.059c0 .582.45.781 1 .441s1-.816 1-1.059-.45-.441-1-.441-1 .477-1 1.059m15.419.292c-.346.901-1.101 1.346-1.678.989-.613-.379-.753-.169-.336.505.392.635 1.088 1.155 1.547 1.155 1.005 0 2.302-3.079 1.595-3.786-.275-.275-.783.237-1.128 1.137m7.275.288c-.933.934.194 2.361 1.865 2.361.793 0 1.441-.675 1.441-1.5 0-1.506-2.111-2.056-3.306-.861M91 177.559c0 .857.457 1.276 1.016.931.559-.346.758-1.047.441-1.559-.857-1.387-1.457-1.129-1.457.628m0 6.5c0 .582.45.781 1 .441s1-.816 1-1.059-.45-.441-1-.441-1 .477-1 1.059m17.583-.193c-.431.697-.513 1.537-.183 1.867.895.895 1.871-.421 1.387-1.871-.338-1.016-.574-1.016-1.204.004m-42.466 31.411c-1.798 3.365-.801 5.959 2.129 5.543 2.619-.372 3.909-4.82 1.397-4.82-.823 0-1.642-.745-1.82-1.655-.249-1.276-.64-1.062-1.706.932m80.931.673c-.799.505-1.805.7-2.237.433-.431-.266-.401.551.067 1.816 1.225 3.311 5.622 3.22 5.622-.116 0-2.71-1.284-3.503-3.452-2.133m-79.495 1.965a1.116 1.116 0 0 0 .362 1.532c.521.322 1.21.159 1.532-.362a1.116 1.116 0 0 0-.362-1.532 1.116 1.116 0 0 0-1.532.362" 
    fill="#f9cd4f"
    fill-rule="evenodd"
  />
</svg>